<svg xmlns="http://www.w3.org/2000/svg" width="900" height="610" viewBox="0 0 900 610">
      <rect width="900" height="610" fill="#F3F6F8"/>
      <text x="42" y="43" font-family="Arial, sans-serif" font-size="25" font-weight="800" fill="#0F172A">玫瑰工作室</text>
      <text x="42" y="69" font-family="Arial, sans-serif" font-size="15" font-weight="700" fill="#64748B">人物服務｜正面＋背面預覽</text>
      <text x="42" y="355" font-family="Arial, sans-serif" font-size="14" font-weight="800" fill="#475569">正面</text>
      <text x="476" y="355" font-family="Arial, sans-serif" font-size="14" font-weight="800" fill="#475569">背面</text>
      <rect x="48" y="103" width="382" height="229" rx="18" fill="#0f172a" opacity=".12"/><rect x="42" y="95" width="382" height="229" rx="18" fill="#D65A7A"/><circle cx="11.4" cy="358.3" r="194.7" fill="#F6B3C4" opacity=".88"/><circle cx="355.2" cy="140.8" r="12.6" fill="#FFEBF1" opacity=".8"/>
              <text x="66" y="126" font-family="Arial, sans-serif" font-size="13" font-weight="700" fill="#FFFFFF">YOUR BRAND</text>
              <line x1="66" y1="140" x2="252.10000000000002" y2="140" stroke="#FFEBF1" stroke-width="2" opacity=".75"/>
              <text x="66" y="177" font-family="Arial, sans-serif" font-size="23" font-weight="800" fill="#FFFFFF">王小明</text>
              <text x="66" y="199" font-family="Arial, sans-serif" font-size="12" font-weight="700" fill="#FFFFFF" opacity=".88">專業服務顧問</text>
              <line x1="66" y1="218" x2="400" y2="218" stroke="#FFEBF1" stroke-width="1" opacity=".7"/>
              <text x="66" y="248" font-family="Arial, sans-serif" font-size="11" font-weight="700" fill="#FFFFFF">Tel｜0912-345-678</text>
              <text x="66" y="269" font-family="Arial, sans-serif" font-size="11" font-weight="700" fill="#FFFFFF">LINE｜@yourline</text>
              <text x="66" y="290" font-family="Arial, sans-serif" font-size="10" font-weight="700" fill="#FFFFFF">hello@example.com</text>
              <rect x="349" y="117" width="48" height="48" rx="12" fill="#ffffff" opacity=".93"/>
              <circle cx="373" cy="141" r="14" fill="#F6B3C4" opacity=".85"/>
            
      <rect x="482" y="103" width="382" height="229" rx="18" fill="#0f172a" opacity=".12"/><rect x="476" y="95" width="382" height="229" rx="18" fill="#D65A7A"/><circle cx="445.4" cy="358.3" r="194.7" fill="#F6B3C4" opacity=".88"/><circle cx="789.2" cy="140.8" r="12.6" fill="#FFEBF1" opacity=".8"/>
              <rect x="496" y="117" width="342" height="185" rx="14" fill="#ffffff" opacity=".96"/>
              <rect x="512" y="152" width="104" height="104" rx="10" fill="#ffffff" stroke="#EA8CA5" stroke-width="2"/>
              <rect x="525.00" y="165.00" width="11.44" height="11.44" fill="#111827"/><rect x="536.14" y="165.00" width="11.44" height="11.44" fill="#111827"/><rect x="547.29" y="165.00" width="11.44" height="11.44" fill="#111827"/><rect x="569.57" y="165.00" width="11.44" height="11.44" fill="#111827"/><rect x="580.71" y="165.00" width="11.44" height="11.44" fill="#111827"/><rect x="591.86" y="165.00" width="11.44" height="11.44" fill="#111827"/><rect x="525.00" y="176.14" width="11.44" height="11.44" fill="#111827"/><rect x="536.14" y="176.14" width="11.44" height="11.44" fill="#111827"/><rect x="547.29" y="176.14" width="11.44" height="11.44" fill="#111827"/><rect x="569.57" y="176.14" width="11.44" height="11.44" fill="#111827"/><rect x="580.71" y="176.14" width="11.44" height="11.44" fill="#111827"/><rect x="591.86" y="176.14" width="11.44" height="11.44" fill="#111827"/><rect x="525.00" y="187.29" width="11.44" height="11.44" fill="#111827"/><rect x="536.14" y="187.29" width="11.44" height="11.44" fill="#111827"/><rect x="547.29" y="187.29" width="11.44" height="11.44" fill="#111827"/><rect x="558.43" y="187.29" width="11.44" height="11.44" fill="#111827"/><rect x="569.57" y="187.29" width="11.44" height="11.44" fill="#111827"/><rect x="580.71" y="187.29" width="11.44" height="11.44" fill="#111827"/><rect x="591.86" y="187.29" width="11.44" height="11.44" fill="#111827"/><rect x="547.29" y="198.43" width="11.44" height="11.44" fill="#111827"/><rect x="558.43" y="198.43" width="11.44" height="11.44" fill="#111827"/><rect x="525.00" y="209.57" width="11.44" height="11.44" fill="#111827"/><rect x="536.14" y="209.57" width="11.44" height="11.44" fill="#111827"/><rect x="547.29" y="209.57" width="11.44" height="11.44" fill="#111827"/><rect x="591.86" y="209.57" width="11.44" height="11.44" fill="#111827"/><rect x="525.00" y="220.71" width="11.44" height="11.44" fill="#111827"/><rect x="536.14" y="220.71" width="11.44" height="11.44" fill="#111827"/><rect x="547.29" y="220.71" width="11.44" height="11.44" fill="#111827"/><rect x="580.71" y="220.71" width="11.44" height="11.44" fill="#111827"/><rect x="591.86" y="220.71" width="11.44" height="11.44" fill="#111827"/><rect x="525.00" y="231.86" width="11.44" height="11.44" fill="#111827"/><rect x="536.14" y="231.86" width="11.44" height="11.44" fill="#111827"/><rect x="547.29" y="231.86" width="11.44" height="11.44" fill="#111827"/><rect x="569.57" y="231.86" width="11.44" height="11.44" fill="#111827"/><rect x="580.71" y="231.86" width="11.44" height="11.44" fill="#111827"/>
              <text x="638" y="157" font-family="Arial, sans-serif" font-size="15" font-weight="800" fill="#1E293B">掃碼快速聯絡</text>
              <text x="638" y="181" font-family="Arial, sans-serif" font-size="10" font-weight="700" fill="#475569">服務內容・案例・LINE 聯絡</text>
              <rect x="638" y="200" width="182" height="18" rx="9" fill="#FFEBF1"/>
              <rect x="638" y="228" width="162" height="18" rx="9" fill="#FFEBF1"/>
              <text x="638" y="261" font-family="Arial, sans-serif" font-size="9" font-weight="700" fill="#64748B">rxv.example/p/your-page</text>
            
      <rect x="42" y="410" width="816" height="135" rx="18" fill="#FFFFFF"/>
      <text x="66" y="446" font-family="Arial, sans-serif" font-size="15" font-weight="800" fill="#1E293B">可印刷設計方向</text>
      <text x="66" y="476" font-family="Arial, sans-serif" font-size="14" font-weight="700" fill="#64748B">柔和玫瑰色，適合美業與創作者。</text>
      <text x="66" y="513" font-family="Arial, sans-serif" font-size="13" font-weight="800" fill="#F6B3C4">CMYK 建議：roseStudio</text>
      <rect x="778" y="456" width="54" height="54" rx="14" fill="#F6B3C4"/>
      <rect x="787" y="465" width="36" height="36" rx="10" fill="#FFEBF1" opacity=".9"/>
    </svg>